<svg xmlns="http://www.w3.org/2000/svg" fill="none" aria-labelledby="boxIconTitle" viewBox="0 0 148 148"><path fill="#2b2b2b" d="M147.92 28.45a.777.777 0 0 0-.07-.16 2.13 2.13 0 0 0-.16-.34l-.11-.16c-.076-.1-.163-.19-.26-.27l-.13-.12h-.05a1.998 1.998 0 0 0-.43-.23l-72-27a2 2 0 0 0-1.4 0l-72 27a2.003 2.003 0 0 0-.43.23H.83l-.13.12c-.097.08-.184.17-.26.27l-.11.16a2.11 2.11 0 0 0-.16.34.77.77 0 0 0-.07.16 2 2 0 0 0-.08.55v81a2 2 0 0 0 1.11 1.79l72 36c.078.036.158.066.24.09l.15.05c.327.093.673.093 1 0l.15-.05c.082-.024.162-.054.24-.09l72-36A1.998 1.998 0 0 0 148 110V29a2.007 2.007 0 0 0-.08-.55ZM80.09 140.72c.74-2.84 1.48-5.67 2.22-8.49.67-2.55 1.32-5.09 2-7.63 1-3.35 1.94-6.69 2.93-10 .219-.738.497-1.457.83-2.15v.84a49.384 49.384 0 0 1-.62 4.94c-.31 2-.63 4.11-1 6.19-.33 1.69-.63 3.39-.91 5.08s-.5 3.31-.76 5c-.17 1.08-.37 2.17-.51 3.25-.05.32-.08.65-.11 1l-4.07 1.97Zm14.06-7-4 2c.58-1.89 1.15-3.78 1.73-5.66 1-3.35 2.07-6.68 3.09-10 .31-1 .59-2.05.9-3.07.42-1.34.86-2.68 1.3-4-.37 2.05-.7 4.31-1.06 6.37-.36 2.06-.64 4-1 6-.17 1-.28 2-.51 3.44-.13 1.25-.22 1.87-.34 3.29-.05.52-.09 1.07-.11 1.6v.03Zm41.48-34.24a45.252 45.252 0 0 1 1.69-5.23c.5-1.42 1-2.84 1.58-4.22a27.923 27.923 0 0 1 1.77-3.75c.26-.45.59-1 .95-.95.36.05.26.83.2 1.32a19.1 19.1 0 0 1-.62 3.17c-.6 2-1.34 3.94-2.05 5.91-.71 1.97-1.34 3.86-2.09 6a4 4 0 0 0-1.43-2.28v.03Zm5 9.8c-.11.37-.25.74-.39 1.1-.14.36-.35.52-.53.36a3.389 3.389 0 0 1-.59-1 15.818 15.818 0 0 1-1.12-4.19 1.379 1.379 0 0 1 .09-.91l1.4-3.2c.64-1.48 1.29-2.95 1.89-4.44a55.493 55.493 0 0 0 2.43-7.46l.15-.68v8.66c-.28.93-.55 1.87-.87 2.89-.81 2.83-1.59 5.99-2.42 8.84l-.04.03Zm3.33-35.9c-.06-.11-.11-.24-.18-.35-.41-.58-.82-.58-1.31.21a22.85 22.85 0 0 0-1.35 2.49c-.8 1.81-1.5 3.68-2.19 5.56a209.6 209.6 0 0 0-2.93 8.5c-1.55 4.83-3.06 9.71-4.65 14.79v-1.31a8.07 8.07 0 0 1 .17-1.93c.68-2.87 1.37-5.73 2-8.57.63-2.84 1.18-5.47 1.76-8.19.46-2.14.917-4.28 1.37-6.42.43-2.06.83-4.12 1.27-6.17.44-2.05.84-4.22 1.26-6.33.55-2.72 1-5.44 1.54-8.15s.9-5.27 1.35-7.89c.24-1.76.23-1.69.41-3.22.261-1.825.402-3.666.42-5.51a5.03 5.03 0 0 0-.13-1c-.2-.63-.41-.72-.89-.3a6.004 6.004 0 0 0-1.34 2 36.78 36.78 0 0 0-1.92 5.59c-.93 3.39-1.76 6.83-2.48 10.29-.72 3.46-1.34 6.68-2 10-.28 1.4-.51 2.81-.76 4.21-.32 1.84-.65 3.69-1 5.54-.37 2.15-.74 4.31-1.08 6.47-.28 1.8-.52 3.59-.79 5.39-.22 1.42-.48 2.85-.68 4.28-.32 2.18-.61 4.36-.9 6.54-.07.52-.2 1.41-.27 2.07a6.366 6.366 0 0 1-.47 1.85 72.575 72.575 0 0 1-3 8.37 10.852 10.852 0 0 1-1.36 2.47c-.4.53-1 1.38-1.6.85a3.542 3.542 0 0 1-.62-1.37 28.423 28.423 0 0 1-.56-4.56 18.173 18.173 0 0 1 .06-2.78c.221-1.501.535-2.987.94-4.45.19-.8.48-1.61.73-2.41.85-2.75 1.65-5.5 2.37-8.24.54-2.11 1.12-4.21 1.6-6.3.7-3 1.33-6 2-8.91.34-1.59.59-3.19.9-4.78.35-1.82.6-3.29.86-5.18.27-1.65.39-2.49.53-3.6.2-1.48.36-2.95.52-4.42.08-.74.15-1 .21-1.92.14-1.49.14-2.49.21-3.88a23.68 23.68 0 0 0-.12-3.41 13.23 13.23 0 0 0-.2-1.47 1.77 1.77 0 0 0-.62-1.11c-.4-.23-1 .24-1.22.58-.115.17-.219.347-.31.53a20.06 20.06 0 0 0-1.45 3.66c-.69 2.26-1.43 4.52-2 6.82-.81 3.11-1.68 6.23-2.46 9.37-.78 3.14-1.48 6.25-2.16 9.4-.38 1.76-.38 1.76-.92 4.54-.22 1.24-.48 2.83-.66 4-.23 1.46-.44 3.25-.62 4.72-.14 1.12-.25 2.18-.36 3.29-.1.91-.14 1.15-.23 2-.19 1.74-.15 1.54-.28 3-.1 1.21-.17 2.87-.23 4.12.01.136.01.274 0 .41-.13 1.94 0 1.19-.15 2.89-.07.35-.25 1.5-.37 1.84-.82 2.31-1.63 4.63-2.51 6.93a27.952 27.952 0 0 1-2.19 4.59c-.66 1.08-1.82 1.62-2.47 1.14a1.806 1.806 0 0 1-.73-1.25 22.852 22.852 0 0 1-.26-3.21v-.85a8.905 8.905 0 0 1 .63-3.15l.12-.33c.54-1.74 1.08-3.49 1.64-5.22.63-1.94 1.12-3.89 1.59-5.83s.92-4 1.27-6c.368-1.732.539-3.5.51-5.27a3.565 3.565 0 0 0-.54-2c-.57-.87-1.58-.5-2.25.57-.351.58-.665 1.18-.94 1.8a49.042 49.042 0 0 0-2.62 7.93c-.71 2.79-1.25 5.58-1.78 8.37-.24 1.24-.38 2.48-.52 3.7a4.497 4.497 0 0 1-.33 1.31c-.55 1.37-1.07 2.77-1.64 4.15a889.275 889.275 0 0 1-3.21 7.68 6.496 6.496 0 0 1-.72 1.26c-.35.49-.75.54-.89 0a9.39 9.39 0 0 1-.13-3c.1-1.34.3-2.72.49-4.09.14-1.07.32-2.14.51-3.21.25-1.41.5-2.81.82-4.22.58-2.55 1.22-5.1 1.83-7.64.548-1.736.811-3.55.78-5.37 0-.58-.12-1.65-.16-2.22-.13-1.37-.21-2-.39-3.16a9.288 9.288 0 0 0-.54-2.08c-.12-.28-.41-.94-.88-.19-.508.86-.92 1.771-1.23 2.72-1 2.63-1.9 5.28-2.85 7.93-1.38 3.86-2.78 7.75-4.17 11.66-1 2.8-2 5.61-3 8.59a4.111 4.111 0 0 1 0-.53c.66-3.16 1.32-6.3 2-9.44.31-1.51.61-3 .89-4.51.28-1.51.48-2.77.7-4.15.232-1.445.352-2.906.36-4.37.04-.75.04-1.5 0-2.25a7.31 7.31 0 0 0-.57-2.78c-.47-1-1.45-.84-2.23.39-.49.74-.919 1.52-1.28 2.33a309.782 309.782 0 0 0-2.93 7.54c-.67 1.82-1.24 3.67-1.86 5.51-.21.61-.46 1.23-.66 1.85-.83 2.66-1.65 5.34-2.49 8-.67 2.14-1.37 4.3-2 6.46-.63 2.16-1.29 4.26-1.94 6.4a3.579 3.579 0 0 1 0-1.66c.35-2.3.84-4.61 1.35-6.92.28-1.26.51-2.5.78-3.75.17-.74.38-1.49.55-2.23.17-.74.3-1.17.56-2.27.45-1.69.49-2 .75-3.07.26-1.07.52-2.16.76-3.24.27-1.24.45-2.45.6-3.68a3.93 3.93 0 0 0-.34-2.71 1.063 1.063 0 0 0-.48-.41c-.68-.28-1.35.19-2 1a15.115 15.115 0 0 0-2.13 3.91A67.382 67.382 0 0 0 76 117.2V57.39l68-25.5-.04 41.49Zm-9.39 40.11-2.52 1.26c.35-1.66.71-3.32 1.06-5 .034-.377.158-.74.36-1.06.36 1.59.72 3.18 1.09 4.76l.01.04Zm-5.74 2.87-2.71 1.35c.58-1.84.64-2.15 1.23-4.12.59-1.97 1.1-3.62 1.08-3.85 0 .51.15 2.15.21 3.27s.15 2.19.23 3.32l-.04.03Zm-6.38-26.49.06-.47c.12-.87.08-.57.21-1.44.17-1.24.37-2.49.55-3.73.11-.72.2-1.44.32-2.17.36-2.42.51-3.17.78-4.84.25-1.47.47-2.53.74-3.8.39-1.91.76-3.82 1.22-5.72a25.613 25.613 0 0 1 1.48-4.78c0 .26 0 .73-.13 1.82-.23 2.29-.45 3.42-.79 5.63-.21 1.42-.48 2.85-.77 4.28-.56 2.84-1.08 5.68-1.78 8.53-.64 2.56-1.28 5.51-2 7.91.027-.42.077-.836.15-1.25l-.04.03Zm-4.75 32.06-2.43 1.21c.74-2.39 1.38-4.78 2-7.3 0 1.09.08 2.1.12 3.11 0 .27.06 1.05.09 1.31.15.61.2 1.1.26 1.64l-.04.03Zm-11.63 5.81-3.87 1.93c.92-2.44 1.8-4.88 2.67-7.31.25-.71.49-1.42.81-2.33.07 1.65.13 3.09.2 4.52.05 1 .12 2 .18 3.06.018.032.035.066.05.1l-.04.03ZM74 4.14l24.42 9.16-66.31 24.86L7.7 29 74 4.14Zm-2 138.62-68-34V31.89l25 9.37V74l18 9V48l25 9.38v85.38ZM49.85 44.81l66.27-24.88L140.3 29 74 53.86l-24.15-9.05ZM143.57 109l.43-1.48v1.26l-.43.22Z"/><path fill="#2b2b2b" d="M114.3 83.94a1.334 1.334 0 0 0 .91-.53 8.621 8.621 0 0 0 1.07-1.61 22.045 22.045 0 0 0 1.84-6.45 17.51 17.51 0 0 0 .21-2.32 5.134 5.134 0 0 0-.28-2.1c-.32-.7-.72-.81-1.31-.45a2.554 2.554 0 0 0-.5.45 11.313 11.313 0 0 0-2.18 4.1 17.014 17.014 0 0 0-.89 6.51c.08 1.03.38 2.36 1.13 2.4Z"/></svg>