<svg xmlns="http://www.w3.org/2000/svg" width="144" height="145" fill="none" aria-hidden="true" aria-labelledby="iconCakeNewTitle"><path fill="#2b2b2b" d="M112.39 12.738a10.685 10.685 0 0 0-8.82-8.226A10.69 10.69 0 0 0 92.7 9.738c-3.31-.31-6.7-.55-10.14-.71a10.69 10.69 0 0 0-21.12 0l-1.62.08h-.24c-2.787.147-5.527.353-8.22.62a10.68 10.68 0 0 0-19.68 3C11.53 17.088 0 24.308 0 32.608v87.57c0 14.92 36.61 23.84 72 23.84s72-8.92 72-23.84v-87.57c0-8.29-11.5-15.5-31.61-19.87Zm27.72 72.35c-.18.26-1 1.1-4.79 2.63a64.402 64.402 0 0 0-6.09 2.71c-2.25 1.19-4 3.25-5.66 5.24-1.84 2.19-3.75 4.45-5.93 5-1.23.33-3.53-.35-5.76-1-3-.92-6.51-1.95-10.09-1.41-3.16.49-5.92 2.41-8.35 4.11-2.11 1.47-4.29 3-6.07 3.11-1.45.07-3.68-1-5.82-2.06-2.82-1.41-6-3-9.55-3-3.55 0-6.73 1.6-9.55 3-2.14 1.06-4.36 2.16-5.82 2.06-1.78-.12-4-1.64-6.07-3.11-2.43-1.7-5.19-3.62-8.35-4.11a13.602 13.602 0 0 0-2-.14c-2.762.12-5.491.646-8.1 1.56-2.22.66-4.51 1.34-5.74 1-2.18-.59-4.09-2.85-5.93-5-1.68-2-3.41-4.05-5.67-5.24a63.102 63.102 0 0 0-6.12-2.73c-3.74-1.51-4.57-2.35-4.75-2.61v-8.48l1.83.78a58.54 58.54 0 0 1 5.4 2.4 16.253 16.253 0 0 1 3.36 3.37c2.36 2.81 5.31 6.31 9.84 7.54 3.37.92 6.91-.14 10.06-1.09 2.37-.7 4.82-1.43 6.65-1.16 1.38.21 3.26 1.53 5.09 2.8 2.83 2 6 4.22 10 4.49 3.59.26 6.91-1.4 9.84-2.86 2.25-1.13 4.38-2.19 6.07-2.19 1.69 0 3.82 1.06 6.09 2.19 2.84 1.42 5.79 2.89 9.08 2.89h.74c3.93-.27 7.15-2.51 10-4.5 1.82-1.27 3.7-2.58 5.07-2.79 1.84-.27 4.29.46 6.68 1.17 3.11.94 6.65 2 10 1.08 4.53-1.23 7.48-4.73 9.84-7.54a16.001 16.001 0 0 1 3.36-3.37 58.34 58.34 0 0 1 5.39-2.4c.53-.21 1.19-.49 1.84-.78l-.02 8.44Zm0 4.72v17.58c-1 .44-2.38 1.06-3.3 1.43-1.91.78-3.88 1.57-5.75 2.56-1.58.84-3 2.53-4.5 4.31-2.23 2.65-4.53 5.38-7.89 6.29-2.31.63-5.15-.23-7.91-1s-5.67-1.71-8.37-1.29c-2.26.35-4.42 1.85-6.72 3.46-2.65 1.85-5.16 3.6-8 3.8a2.357 2.357 0 0 0-.46 0c-2.38 0-4.9-1.26-7.35-2.48-2.68-1.34-5.21-2.6-7.82-2.6-2.61 0-5.13 1.26-7.82 2.59-2.69 1.33-5.29 2.64-7.82 2.47-2.85-.2-5.36-1.95-8-3.8-2.29-1.6-4.45-3.11-6.72-3.46-2.7-.41-5.57.45-8.39 1.29-2.82.84-5.59 1.68-7.89 1-3.36-.91-5.66-3.64-7.9-6.3a17.622 17.622 0 0 0-4.5-4.3 60.88 60.88 0 0 0-5.76-2.56c-.9-.36-2.25-1-3.29-1.43v-17.56c1 .51 2.08 1 3.32 1.51 1.9.77 3.87 1.57 5.73 2.55a17.372 17.372 0 0 1 4.51 4.31c2.13 2.52 4.53 5.38 7.89 6.29 2.3.63 5-.19 7.9-1 2.66-.8 5.68-1.7 8.38-1.29 2.27.35 4.53 1.92 6.72 3.45 2.54 1.77 5.16 3.6 8 3.81 2.53.17 5.22-1.17 7.83-2.47 2.61-1.3 5.2-2.6 7.81-2.6 2.61 0 5.14 1.26 7.82 2.6 2.68 1.34 5 2.48 7.35 2.48h.47c2.86-.21 5.48-2 8-3.81 2.19-1.52 4.45-3.1 6.72-3.45 2.71-.41 5.72.49 8.39 1.29 2.87.86 5.59 1.67 7.89 1 3.36-.91 5.76-3.77 7.89-6.29 1.5-1.78 2.92-3.47 4.51-4.31a61.464 61.464 0 0 1 5.75-2.56 36.21 36.21 0 0 0 3.28-1.51Zm-3.3-16a62.117 62.117 0 0 0-5.76 2.56 17.501 17.501 0 0 0-4.5 4.31c-2.23 2.64-4.53 5.37-7.89 6.28-2.31.63-5.15-.22-7.91-1.05-2.76-.83-5.67-1.7-8.37-1.28-2.26.34-4.42 1.85-6.72 3.45-2.65 1.85-5.16 3.6-8 3.8h-.46c-2.38 0-4.9-1.26-7.35-2.48-2.68-1.34-5.21-2.6-7.82-2.6-2.61 0-5.13 1.26-7.82 2.6-2.69 1.34-5.29 2.64-7.82 2.46-2.85-.2-5.36-1.95-8-3.8-2.29-1.6-4.45-3.1-6.72-3.45-2.7-.42-5.57.44-8.39 1.28-2.82.84-5.59 1.68-7.89 1.05-3.36-.91-5.66-3.64-7.9-6.29-1.5-1.78-2.92-3.47-4.5-4.3a61.111 61.111 0 0 0-5.76-2.57c-.9-.36-2.25-1-3.29-1.42v-17.58c1 .51 2.08 1 3.32 1.51 1.9.77 3.87 1.57 5.73 2.55 1.59.84 3 2.53 4.51 4.32 2.13 2.51 4.53 5.37 7.89 6.28 2.3.63 5-.18 7.9-1 2.66-.8 5.68-1.7 8.38-1.29 2.27.35 4.53 1.93 6.72 3.45 2.54 1.78 5.16 3.61 8 3.81 2.53.18 5.22-1.17 7.83-2.47 2.61-1.3 5.2-2.6 7.81-2.6 2.61 0 5.14 1.27 7.82 2.6 2.68 1.33 5 2.48 7.35 2.48h.47c2.86-.2 5.48-2 8-3.81 2.19-1.52 4.45-3.1 6.72-3.45 2.71-.41 5.72.49 8.39 1.3 2.87.85 5.59 1.67 7.89 1 3.36-.91 5.76-3.77 7.89-6.29 1.5-1.78 2.92-3.47 4.51-4.31 1.85-1 3.82-1.77 5.75-2.56a33.612 33.612 0 0 0 3.3-1.5v17.59c-.99.42-2.39 1.04-3.31 1.41v.01Zm-5.46-45.56a6.805 6.805 0 0 1-4.204 6.292 6.812 6.812 0 0 1-8.898-8.898 6.815 6.815 0 0 1 6.292-4.204 6.82 6.82 0 0 1 6.81 6.8v.01ZM102 8.288a6.81 6.81 0 0 1 6.76 6v.76c.015.23.015.46 0 .69a5.03 5.03 0 0 1-.1.68 6.624 6.624 0 0 1-.74 2c-.118.214-.248.42-.39.62l-.19.25c-.129.169-.27.33-.42.48a3.19 3.19 0 0 1-.26.26l-.47.41-.26.2-.58.37-.27.14-.55.26-.17.06a7.07 7.07 0 0 1-4.05.21 5.996 5.996 0 0 1-.69-.21l-.18-.07a6.196 6.196 0 0 1-.82-.4 5.488 5.488 0 0 1-.57-.36l-.27-.2a5.882 5.882 0 0 1-.46-.41 3.55 3.55 0 0 1-.28-.27c-.14-.15-.27-.3-.4-.47a2.543 2.543 0 0 1-.2-.26c-.13-.19-.26-.38-.37-.58a6.74 6.74 0 0 1-.89-3.36V13.708c.053-.247.12-.49.2-.73v-.11l.26-.26v-.39a6.83 6.83 0 0 1 6.36-3.93Zm-30-4.38a6.82 6.82 0 0 1 6.81 6.73v.22c-.008.335-.041.67-.1 1v.26c-.06.274-.137.545-.23.81 0 .14-.1.27-.15.4-.05.13-.15.32-.23.48-.08.16-.22.41-.35.61l-.24.35a6.809 6.809 0 0 1-5.46 2.77c-.19.01-.38.01-.57 0h-.19a6.88 6.88 0 0 1-4.7-2.73l-.24-.35c-.13-.2-.24-.4-.35-.61a6.48 6.48 0 0 1-.23-.48c-.07-.16-.11-.26-.15-.4a6.889 6.889 0 0 1-.23-.81v-.26a6.642 6.642 0 0 1-.1-1v-.22A6.82 6.82 0 0 1 72 3.908Zm-29.89 4.38a6.83 6.83 0 0 1 6.26 4.13v.09l.06.14c.06.15.12.31.17.48.005.05.005.1 0 .15l.12.47v.11l.06.36V15.078a6.72 6.72 0 0 1-.9 3.36c-.11.2-.23.39-.36.58l-.2.27c-.13.16-.26.31-.4.46l-.28.28c-.15.14-.31.27-.47.4l-.26.2-.58.37-.27.14-.55.26-.17.06a7.07 7.07 0 0 1-4 .21 5.996 5.996 0 0 1-.69-.21l-.17-.07a4.256 4.256 0 0 1-.53-.24l-.3-.16a5.488 5.488 0 0 1-.57-.36l-.26-.2c-.17-.13-.32-.27-.48-.41l-.26-.26c-.14-.15-.28-.31-.41-.47l-.2-.27a6.77 6.77 0 0 1-1.21-3.15V15.078a5.805 5.805 0 0 1 0-.59v-.18a6.83 6.83 0 0 1 6.85-6.02Zm-22.65 13.14a6.81 6.81 0 1 1-6.81 6.81 6.82 6.82 0 0 1 6.81-6.81ZM4 31.778v-.16a5 5 0 0 1 .22-.8l.06-.16a8.64 8.64 0 0 1 .38-.83c.157-.284.33-.558.52-.82l.12-.16c.19-.26.41-.53.64-.79l.15-.17c.25-.27.51-.54.8-.8.28-.27.59-.53.92-.79l.19-.15c.33-.26.68-.52 1-.77l.08-.06a10.7 10.7 0 1 0 15-6.63l.26-.08 1.28-.37.58-.16 1.09-.29.62-.16c.39-.11.79-.21 1.19-.3l.52-.13 1.77-.42.09.52.06.2c0 .18.08.36.13.53.05.17.09.31.14.46.05.15.11.32.17.47.037.119.08.236.13.35l.06.13.18.38c.07.14.13.29.21.42a.43.43 0 0 0 0 .07c.12.22.25.42.38.63 0 .06.08.13.13.2s.11.15.17.23l.26.34.16.21c0 .07.12.14.18.21l.44.49.28.26c.143.144.293.281.45.41l.29.23.29.23.2.14.35.23c.16.1.32.2.49.29.044.033.091.063.14.09l.17.08c.17.08.34.17.52.24.127.064.257.121.39.17h.09c.14.06.29.1.43.15l.4.14.6.15.39.09.68.1h.33c.35 0 .7.05 1 .05.888 0 1.771-.114 2.63-.34.38-.092.755-.21 1.12-.35l.23-.08c.33-.14.65-.28 1-.45l.15-.07c.045-.024.088-.051.13-.08.344-.188.678-.395 1-.62l.4-.3c.26-.21.51-.42.75-.65l.41-.41c.23-.24.44-.49.65-.75l.3-.4c.219-.305.419-.622.6-.95l.1-.14c.16-.31.31-.62.45-.94.27-.646.477-1.315.62-2 0-.21.07-.43.1-.64.03-.21 0-.28.07-.43v-2.09.04a.19.19 0 0 1 0-.08v-.2a1.648 1.648 0 0 0 0-.22c2.89-.26 5.85-.46 8.84-.6.087.417.201.828.34 1.23v.08c.13.36.27.71.43 1l.1.21c.15.3.32.59.5.88l.12.21c.222.346.462.68.72 1l.09.11c.16.19.33.37.51.54l.09.1.08.08.5.45.15.13H65l.12.09c.22.18.45.35.68.51l.22.13.56.33h.07l.23.11.12.06c.19.09.37.19.56.26.133.062.27.115.41.16h.1c.137.059.277.109.42.15l.34.09h.28c.12 0 .24.07.37.09h.18l.31.05H72c.334.004.668-.012 1-.05H73.62l.32-.05h.19l.4-.1h.28l.34-.09h.06l.4-.15.18-.06.32-.12.49-.23.12-.06.24-.12c.21-.11.41-.23.63-.37l.19-.12c.21-.14.41-.28.58-.42l.15-.11c.24-.2.47-.4.64-.57l.11-.1a.1.1 0 0 1 0-.05l.16-.17c.14-.15.29-.29.42-.45l.1-.12c.25-.31.49-.64.71-1l.13-.22c.179-.284.343-.578.49-.88.037-.068.07-.138.1-.21.162-.325.306-.659.43-1v-.08c.144-.401.257-.812.34-1.23 3 .14 6 .35 8.9.61v1.6a9.81 9.81 0 0 0 0 1.09c0 .15 0 .28.07.43.07.15.05.43.09.64.142.686.353 1.356.63 2 .13.32.28.63.45.93.024.05.054.097.09.14.183.345.387.68.61 1l.3.4c.203.261.42.512.65.75l.4.4c.24.23.5.45.76.66l.4.3c.32.226.653.43 1 .61a.67.67 0 0 0 .14.09l.17.08c.31.16.62.31.94.44l.24.08c.361.142.732.259 1.11.35.858.226 1.742.34 2.63.34.35 0 .7 0 1-.05h.34l.68-.1.39-.09.59-.15.4-.13.44-.16h.07l.39-.16.52-.25.15-.07c.045-.024.088-.051.13-.08l.49-.3.34-.23.21-.14c.098-.071.191-.148.28-.23l.29-.23c.17-.14.32-.28.48-.43l.28-.27c.17-.17.33-.35.49-.54l.14-.15.16-.22c.09-.11.17-.22.25-.34l.18-.23.11-.18c.14-.21.27-.43.39-.65l.05-.06c.06-.12.11-.25.17-.37.06-.12.15-.3.22-.45l.06-.12.11-.3a11.227 11.227 0 0 0 .32-.95c.04-.14.1-.38.14-.57l.06-.22c0-.14.05-.28.07-.43l1.74.4.59.15 1.11.28.67.17 1 .28.67.18.95.28.52.15a10.692 10.692 0 0 0-4.113 15.512 10.69 10.69 0 0 0 19.163-8.882l.1.07 1 .75.2.17a13.92 13.92 0 0 1 1.7 1.58l.15.16c.23.26.45.53.64.79l.12.16c.19.262.363.536.52.82a8.7 8.7 0 0 1 .38.83l.06.16c.096.263.17.534.22.81v.15c.051.274.078.552.08.83 0 4.79-7.16 9.88-19.15 13.63-13.05 4.08-30.44 6.32-49 6.32s-35.91-2.24-49-6.32c-12-3.75-19.15-8.84-19.15-13.63.2-.346.441-.665.72-.95Zm-.08 8.84c10.32 10 39.6 15.83 68.11 15.83 28.51 0 57.79-5.79 68.11-15.83v9.45c-.18.25-1 1.09-4.79 2.62-2 .81-4 1.64-6.09 2.71-2.25 1.2-4 3.26-5.66 5.25-1.84 2.18-3.75 4.44-5.93 5-1.23.33-3.53-.36-5.76-1-3-.91-6.51-1.95-10.09-1.4-3.16.48-5.92 2.41-8.35 4.1-2.11 1.47-4.29 3-6.07 3.12-1.45.09-3.68-1-5.82-2.07-2.82-1.41-6-3-9.55-3-3.55 0-6.73 1.6-9.55 3-2.14 1.07-4.36 2.18-5.82 2.07-1.78-.13-4-1.65-6.07-3.12-2.43-1.7-5.19-3.62-8.35-4.1a12.378 12.378 0 0 0-2-.15c-2.761.125-5.49.65-8.1 1.56-2.22.66-4.51 1.35-5.74 1-2.18-.6-4.09-2.86-5.93-5-1.68-2-3.41-4-5.67-5.24a63.078 63.078 0 0 0-6.12-2.73c-3.74-1.51-4.57-2.35-4.75-2.6l-.01-9.47Zm136.22 79.56c0 4.78-7.16 9.88-19.15 13.62-13.05 4.08-30.44 6.33-49 6.33s-35.91-2.25-49-6.33c-12-3.74-19.15-8.84-19.15-13.62v-8.53l1.83.78c1.82.74 3.71 1.5 5.4 2.39a16.326 16.326 0 0 1 3.36 3.38c2.36 2.81 5.31 6.31 9.84 7.54 3.37.92 6.91-.14 10.06-1.09 2.37-.71 4.82-1.44 6.65-1.16 1.38.21 3.26 1.53 5.09 2.8 2.83 2 6 4.22 10 4.49 3.59.26 6.91-1.4 9.84-2.87 2.25-1.12 4.38-2.18 6.07-2.18 1.69 0 3.82 1.06 6.09 2.19 2.84 1.42 5.79 2.89 9.08 2.89h.74c3.93-.27 7.15-2.52 10-4.5 1.82-1.27 3.7-2.58 5.07-2.79 1.84-.28 4.29.45 6.68 1.17 3.11.93 6.65 2 10 1.08 4.53-1.23 7.48-4.73 9.84-7.54a16.335 16.335 0 0 1 3.36-3.38c1.69-.89 3.57-1.65 5.39-2.39.53-.21 1.19-.49 1.84-.78l.07 8.5Z"/><path fill="#2b2b2b" d="M72 51.018a10.71 10.71 0 1 0 .02-21.42 10.71 10.71 0 0 0-.02 21.42Zm0-17.51a6.81 6.81 0 1 1-6.81 6.81 6.809 6.809 0 0 1 6.81-6.85v.04ZM98.27 48.668a10.71 10.71 0 1 0 .02-21.421 10.71 10.71 0 0 0-.02 21.42Zm0-17.51a6.806 6.806 0 0 1 6.292 4.204 6.811 6.811 0 0 1-11.954 6.39 6.81 6.81 0 0 1 5.662-10.594ZM45.73 48.668a10.71 10.71 0 1 0-.04-21.42 10.71 10.71 0 0 0 .04 21.42Zm0-17.51a6.81 6.81 0 1 1-6.81 6.86 6.819 6.819 0 0 1 6.81-6.86Z"/></svg>